<svg xmlns="http://www.w3.org/2000/svg" xmlns:xlink="http://www.w3.org/1999/xlink" width="1920" height="1080" viewBox="0 0 1920 1080"><defs><style>.a{clip-path:url(#m);}.b{fill:url(#a);}.c{fill:#aa7b66;}.d{fill:#d8d3c5;}.e{fill:#c49882;}.f{fill:#00143a;}.g{opacity:0.54;}.h{fill:#996d59;}.i{fill:#f3f0eb;}.j{fill:#1f3443;}.k{fill:#14222b;}.l{fill:#604835;}.m{fill:#344956;}.n{fill:#f9f3e2;}.o,.t{fill:#020e23;}.o,.z{opacity:0.27;}.p{fill:#bb802f;}.q{fill:#a06927;}.r{fill:#f2957e;}.s{fill:#e0e1e2;}.u{fill:#7c4f43;}.v{fill:#986251;}.w{fill:#f6ba99;}.x{opacity:0.33;}.y{opacity:0.17;}.aa{fill:#154593;}.ab{fill:#799dd1;}.ac{fill:#fff;}.ad{filter:url(#j);}.ae{filter:url(#h);}.af{filter:url(#f);}.ag{filter:url(#d);}.ah{filter:url(#b);}</style><linearGradient id="a" x1="0.836" y1="0.057" x2="0.5" y2="1" gradientUnits="objectBoundingBox"><stop offset="0" stop-color="#9d9690"/><stop offset="0.783" stop-color="#5c5856"/><stop offset="1" stop-color="#585553"/></linearGradient><filter id="b" x="343.891" y="212.556" width="1642.635" height="961.873" filterUnits="userSpaceOnUse"><feOffset dy="15" input="SourceAlpha"/><feGaussianBlur stdDeviation="15" result="c"/><feFlood flood-opacity="0.161"/><feComposite operator="in" in2="c"/><feComposite in="SourceGraphic"/></filter><filter id="d" x="777.146" y="607.328" width="134.721" height="70.351" filterUnits="userSpaceOnUse"><feOffset dy="3" input="SourceAlpha"/><feGaussianBlur stdDeviation="3" result="e"/><feFlood flood-opacity="0.161"/><feComposite operator="in" in2="e"/><feComposite in="SourceGraphic"/></filter><filter id="f" x="646.328" y="677.01" width="182.666" height="202.652" filterUnits="userSpaceOnUse"><feOffset dy="3" input="SourceAlpha"/><feGaussianBlur stdDeviation="3" result="g"/><feFlood flood-opacity="0.161"/><feComposite operator="in" in2="g"/><feComposite in="SourceGraphic"/></filter><filter id="h" x="747.625" y="605.111" width="96.52" height="115.754" filterUnits="userSpaceOnUse"><feOffset dy="3" input="SourceAlpha"/><feGaussianBlur stdDeviation="3" result="i"/><feFlood flood-opacity="0.161"/><feComposite operator="in" in2="i"/><feComposite in="SourceGraphic"/></filter><filter id="j" x="1347.488" y="125.956" width="557.673" height="444.044" filterUnits="userSpaceOnUse"><feOffset dy="6" input="SourceAlpha"/><feGaussianBlur stdDeviation="6" result="k"/><feFlood flood-opacity="0.161"/><feComposite operator="in" in2="k"/><feComposite in="SourceGraphic"/></filter><clipPath id="m"><rect width="1920" height="1080"/></clipPath></defs><g id="l" class="a"><g transform="translate(6 6)"><g transform="matrix(1, 0.017, -0.017, 1, 10.539, 491.411)"><g class="ah" transform="matrix(1, -0.02, 0.02, 1, -25.22, -497.05)"><path class="b" d="M14.1,888.1s88.682-110.507,119.211-118.5c30.53-7.323,150.468-47.265,150.468-47.265s52.337-144.458,98.858-137.8c0,0,29.076,3.329,47.975,4.66,18.172,1.331,31.984-135.8,44.341-147.121,13.084-11.983,133.023-31.954,133.023-31.954S689.39,301.615,735.184,306.94s242.058-5.326,242.058-5.326,51.61-157.772,113.4-140.464c0,0,65.421-131.144,103.947-117.164C1233.111,58.632,1404.994,7.838,1474.5,214.72s77.717,644.09,77.717,644.09Z" transform="matrix(1, 0.02, -0.02, 1, 390.29, 199.37)"/></g><g transform="translate(396.91 207.559)"><path class="c" d="M58.546,65.931a22.58,22.58,0,0,1,9.566,13.021c3.455,13.021,10.364,37.734,15.678,44.643,6.909,9.566,33.482,26.573,35.343,27.636v.266l-5.049,12.755a9.371,9.371,0,0,0-2.392-.531c-2.657-.531-52.084-26.573-58.993-49.958h0L57.217,65.4h.266Z" transform="translate(87.342 -6.673)"/><path class="d" d="M57.823,110.74,73.5,100.111S67.389,66.1,54.9,65.3Z" transform="translate(90.988 -6.839)"/><path class="c" d="M90.073,103.009s8.238,6.112,21.259,2.126c0,0,2.923,1.594-.531,2.657s-18.867,7.175-22.853,4.783c0,0-9.832,5.315-15.147,5.049,0,0,6.643-2.657,7.441-4.783s-3.72-6.909-3.72-6.909L79.443,96.1Z" transform="translate(120.654 44.207)"/><g transform="translate(113.987)"><g transform="translate(8.782 7.706)"><path class="e" d="M69.319,100.144c-.266-2.126,1.329-10.9,1.329-10.9s8.238-.266,9.3-8.238,1.86-26.573,1.86-26.573L67.459,46.2,50.452,57.361,46.2,66.13l4.252,21.259L49.92,98.018Z" transform="translate(-46.2 -46.2)"/><g transform="translate(30.028 19.023)"><path class="f" d="M60.326,54.763A1.063,1.063,0,1,1,59.263,53.7C60.06,53.7,60.326,53.966,60.326,54.763Z" transform="translate(-56.34 -52.793)"/><path class="f" d="M61.486,54.8a17.693,17.693,0,0,0-1.86-.8,4,4,0,0,0-2.126.266s0-.266.531-.531a1.631,1.631,0,0,1,1.594-.266,2.271,2.271,0,0,1,1.594.8C61.486,54.532,61.752,54.8,61.486,54.8Z" transform="translate(-57.5 -53.359)"/></g><g transform="translate(17.804 18.226)"><path class="f" d="M55.238,53.509a.958.958,0,1,1-1.329.266C54.175,53.243,54.706,53.243,55.238,53.509Z" transform="translate(-51.517 -52.602)"/><path class="f" d="M56.886,54.5a17.693,17.693,0,0,0-1.86-.8,4,4,0,0,0-2.126.266s0-.266.531-.531a1.631,1.631,0,0,1,1.594-.266,2.271,2.271,0,0,1,1.594.8C56.886,54.232,57.152,54.5,56.886,54.5Z" transform="translate(-52.9 -53.059)"/></g><g transform="translate(25.245 19.664)"><path class="f" d="M55.7,63.166h1.86c.266,0,.531,0,.531-.266v-.8c-.266-.8-.266-1.594-.531-2.392-.8-3.455-1.329-6.112-1.329-6.112s.8,2.657,1.594,6.112c.266.8.266,1.594.531,2.392,0,.266.266.8,0,1.063,0,.266-.266.266-.531.266h-.531A3.857,3.857,0,0,1,55.7,63.166Z" transform="translate(-55.7 -53.6)"/></g><g class="g" transform="translate(14.084 26.042)"><path class="h" d="M57.878,57.86c0,.8-1.594,1.594-3.189,1.329-1.594,0-3.189-.8-3.189-1.594S53.094,56,54.689,56C56.549,56,57.878,56.8,57.878,57.86Z" transform="translate(-51.5 -56)"/></g><path class="i" d="M54.41,57.586c-1.063-.8,2.923,2.126,5.315,2.126a3.171,3.171,0,0,1-3.72.8C53.613,59.446,54.41,57.586,54.41,57.586Z" transform="translate(-32.886 -27.558)"/><path class="h" d="M61.864,65.052A20.032,20.032,0,0,1,51.5,60.8s1.86,6.112,10.1,6.378Z" transform="translate(-37.416 -22.003)"/></g><path class="f" d="M51.677,79.44A74.65,74.65,0,0,1,54.6,91.664c1.063,2.392,1.86-4.783,1.86-4.783s1.329-6.643.531-9.3c0,0-4.252,1.063-4.783-6.112-.266-3.72,5.315-5.049,6.643-.8l3.455.531s.8-13.818,8.5-10.9c0,0,5.58,3.72,9.035,1.86,3.455-2.126,3.189-2.657,3.189-2.657s1.594,3.72,6.112,1.594,5.315-6.378,3.72-8.5c-.8-1.329-1.594-2.657-3.189-2.923a4.625,4.625,0,0,0-3.986,1.329,3.783,3.783,0,0,0-1.063-5.049,6.8,6.8,0,0,0-5.58-.531,14.466,14.466,0,0,0-4.783,2.923A7.431,7.431,0,0,0,67.355,43.3a7.3,7.3,0,0,0-6.643,5.58,6.1,6.1,0,0,0-7.175-1.594A9.384,9.384,0,0,0,48.754,53.4c-.8,2.657,0,5.315.8,7.706a4.478,4.478,0,0,0-5.58,1.063c-1.329,1.594-1.329,3.986-.531,6.112A9.96,9.96,0,0,0,47.691,72.8a4.064,4.064,0,0,0-1.063,4.783,4.487,4.487,0,0,0,4.517,2.126" transform="translate(-42.895 -43.3)"/><g transform="translate(11.595 25.776)"><path class="h" d="M50.557,58.846l-.266.266c-.266,0-.531.266-.8,0-.8-.266-1.329-1.329-1.329-2.657,0-.531,0-1.329.266-1.594a3.668,3.668,0,0,1,.8-1.063.976.976,0,0,1,.8.266v.266s.266,0,0-.531c0-.266,0-.266-.266-.531-.266,0-.531-.266-.8-.266a1.766,1.766,0,0,0-1.329,1.063,2.334,2.334,0,0,0-.266,1.86,2.991,2.991,0,0,0,1.86,2.923c.531,0,.8,0,1.063-.266Z" transform="translate(-47.259 -53)"/></g></g><path class="j" d="M61.074,114.748a13.8,13.8,0,0,0,1.329-.8c9.832-6.112,63.51-35.343,81.049-24.182,20.727,13.021-9.832,90.615-9.832,90.615l-25.776-6.643s21.259-54.21,7.706-51.818c-7.706,1.329-48.1,31.091-48.1,31.091L25.2,137.07" transform="translate(41.765 29.545)"/><g transform="translate(110.545 139.776)"><path class="k" d="M41.6,132.571a4.588,4.588,0,0,1,.8-1.063,19.382,19.382,0,0,1,2.392-2.923,99.388,99.388,0,0,1,26.839-22.853,109.814,109.814,0,0,1,11.161-5.846,31.176,31.176,0,0,0,2.923-1.329c1.063-.531,2.126-.8,3.189-1.329A19.961,19.961,0,0,1,95.81,95.9a7.356,7.356,0,0,1,3.455.8,11.8,11.8,0,0,1,2.923,2.126,14.445,14.445,0,0,1,2.923,6.112,17.2,17.2,0,0,1,.266,6.378c0,1.063-.266,2.126-.266,3.189s-.266,2.126-.266,2.923A92.055,92.055,0,0,1,99.8,137.886a110.455,110.455,0,0,1-5.846,13.021,21.63,21.63,0,0,1-2.126,3.189,7.86,7.86,0,0,1-.8,1.063,11.171,11.171,0,0,0,.531-1.329,34.768,34.768,0,0,0,1.86-3.455A117.567,117.567,0,0,0,99,137.354a93.971,93.971,0,0,0,4.517-20.461c.531-3.986,1.063-7.972.266-12.224a9.183,9.183,0,0,0-2.657-5.58,7.237,7.237,0,0,0-5.58-2.392,26.676,26.676,0,0,0-6.378,1.063c-1.063.266-2.126.8-2.923,1.063a31.18,31.18,0,0,0-2.923,1.329,83.263,83.263,0,0,0-10.9,5.58,104.513,104.513,0,0,0-17.007,12.224c-4.517,3.986-7.706,7.441-10.1,9.832C42.929,131.243,41.866,132.837,41.6,132.571Z" transform="translate(-41.6 -95.9)"/></g><path class="j" d="M65.8,108.652v2.126c-.266,10.9-2.392,49.692-8.769,62.447C54.378,178.274.7,261.449.7,261.449l26.839,14.084s53.678-72.014,63.51-87.958c3.986-6.378,23.119-83.175,23.119-83.175Z" transform="translate(1.16 57.963)"/><path class="e" d="M64.5,95.1l1.594-3.986a37,37,0,0,0,2.923-6.643,7.849,7.849,0,0,0,.531-3.455,11.734,11.734,0,0,0-.531-4.517,1.4,1.4,0,0,1,1.86-1.86c1.063.8,2.392,4.252,1.86,8.769s4.517-.531,6.378-2.392,7.706-7.175,8.769-6.909c1.594.266,1.594,1.86-.266,3.455-1.86,1.86-7.175,7.441-6.112,8.238s10.1-8.5,10.1-8.5S93.2,74.9,94.528,75.966c2.126,1.86-8.238,10.9-9.3,11.958-.8.531.266,1.594,1.063,1.063.8-.8,9.035-9.566,11.161-7.706,1.594,1.329-8.5,7.706-9.3,10.364s7.175-5.58,8.769-3.986c.531.531,1.063,1.063-4.252,5.049-5.315,4.252-21.79,13.021-21.79,13.021L64.5,95.1" transform="translate(106.898 7.74)"/><path class="l" d="M19.93,172.866s14.084,12.224,9.832,11.427S0,167.552,0,167.552L2.126,163.3Z" transform="translate(0 155.581)"/><path class="l" d="M77.227,125.446s16.21,9.3,11.692,9.3c-4.252,0-32.42-10.629-32.42-10.629l1.063-4.517Z" transform="translate(93.64 83.155)"/><path class="m" d="M14.5,165.071l27.9,19.664L68.444,147.8,36.29,128.4S19.283,157.365,14.5,165.071Z" transform="translate(24.031 97.739)"/><g transform="translate(73.608 168.69)"><path class="k" d="M44.973,106.832c.266,0-.266,1.063-1.594,2.392a9.65,9.65,0,0,1-2.392,2.126,14.317,14.317,0,0,1-3.455,1.86,27.266,27.266,0,0,1-3.72,1.063,14.043,14.043,0,0,1-3.189.266,7.051,7.051,0,0,1-2.923-.531c0-.266,1.063-.266,2.923-.266A24.643,24.643,0,0,0,37,112.146a25.5,25.5,0,0,0,5.58-3.455C44.175,107.363,44.973,106.566,44.973,106.832Z" transform="translate(-27.7 -106.781)"/></g><g transform="translate(5.58 166.349)"><path class="k" d="M69.6,105.9v6.909c0,4.517.266,10.9.531,18.867a116.91,116.91,0,0,1-1.86,27.9,73.819,73.819,0,0,1-5.049,15.944A126.225,126.225,0,0,1,54.981,191.2a534.8,534.8,0,0,1-36.14,50.755c-5.049,6.112-9.035,11.161-11.958,14.615-1.329,1.594-2.657,2.923-3.455,3.72L2.1,261.62a5.9,5.9,0,0,1,1.063-1.329q1.2-1.594,3.189-3.986c2.923-3.455,6.909-8.5,11.692-14.881A551.461,551.461,0,0,0,53.652,190.4a126.227,126.227,0,0,0,8.238-15.678,71.719,71.719,0,0,0,5.049-15.678c2.126-10.364,2.126-19.664,2.126-27.636s-.266-14.35-.266-18.867a25.947,25.947,0,0,1,.266-5.049C69.331,106.431,69.331,105.9,69.6,105.9Z" transform="translate(-2.1 -105.9)"/></g><path class="k" d="M56.1,125.735l25.776,6.643,3.189-8.5L59.289,116.7Z" transform="translate(92.977 78.349)"/><path class="k" d="M.6,169.335l27.371,13.552,5.846-8.238L6.446,160.3Z" transform="translate(0.994 150.609)"/><path class="n" d="M26.152,174.34S17.915,153.082,39.7,119.6C61.229,86.383,70,65.921,74.782,65.124s30.294,1.063,30.294,1.063c6.378,20.461,3.986,65.9-4.783,66.7C100.292,133.152,30.67,180.718,26.152,174.34Z" transform="translate(40.812 -7.46)"/><path class="o" d="M65.35,107.72s-10.9,8.769-11.427,5.58c-.531-2.923.266-38,.266-38s-9.035,47.3-3.455,48.1,13.552-7.972,13.552-7.972Z" transform="translate(81.069 9.735)"/><path class="p" d="M42.5,68.315c1.063-.531,24.979-.531,22.322,30.028l-2.657,30.294s8.238-9.566,8.5-36.14A29.042,29.042,0,0,0,45.689,63.266,2.4,2.4,0,0,1,44.36,63Z" transform="translate(70.437 -10.65)"/><path class="p" d="M70.892,90.2a48.586,48.586,0,0,1-43.846,14.35L21.2,109.6s20.2,12.489,49.958-11.161Z" transform="translate(35.136 34.429)"/><path class="o" d="M46,75.1s-23.916,86.1,9.3,81.58Z" transform="translate(62.424 9.403)"/><g transform="translate(105.983 61.535)"><path class="e" d="M58,66.572c-1.594.266-14.881,8.238-15.413,28.168-.8,22.587-6.112,53.678.8,67.5,1.594,3.189,3.72,5.58,6.909,6.643,16.475,5.846,70.951-55.8,70.951-55.8L110.613,97.131s-40.392,39.86-43.049,35.077c-1.594-2.657,3.189-25.776,2.923-43.846C69.956,75.607,67.3,65.243,58,66.572Z" transform="translate(-39.883 -66.457)"/></g><path class="n" d="M54.55,66.779S43.655,74.751,40.2,98.4l29.762,3.455S77.934,59.073,54.55,66.779Z" transform="translate(66.625 -5.926)"/><path class="j" d="M66.989,79.3,80.01,93.65l-2.923,2.657L63.8,81.957Z" transform="translate(105.738 16.364)"/><path class="i" d="M73.406,85.02A3.855,3.855,0,1,1,69.42,81.3,3.861,3.861,0,0,1,73.406,85.02Z" transform="translate(108.887 19.679)"/><g transform="translate(177.51 103.105)"><path class="j" d="M69.989,84.757a17.9,17.9,0,0,1-2.657-.266H66.8l.266-.266.266-.266a22.4,22.4,0,0,1,2.126-1.86,22.411,22.411,0,0,1-1.86,2.126l-.266.266V83.96C68.926,84.226,69.989,84.492,69.989,84.757Z" transform="translate(-66.8 -82.1)"/></g><path class="p" d="M89.438,73.057s.531-5.58-.266-7.706-9.035-9.832-20.2-7.972c-24.448,3.986-18.6,22.056-30.294,35.343-11.427,13.287-44.378,64.839-.266,74.937L89.97,74.652" transform="translate(26.688 -20.442)"/><path class="p" d="M37.6,76.244s-9.566-.531-13.287,1.329c-3.455,1.86-17.273,24.979-11.427,31.357S29.629,116.9,29.629,116.9Z" transform="translate(19 11.183)"/><g transform="translate(58.196 47.301)"><path class="q" d="M80.627,61.1a4.19,4.19,0,0,1-.266,1.063c-.266.8-.8,1.86-1.329,3.189C77.97,68.009,76.11,72,73.718,76.513s-5.58,10.1-9.035,15.944c-3.72,5.846-7.706,12.224-11.692,19.133-8.238,13.552-15.944,25.776-21.524,34.545-2.923,4.252-5.315,7.972-6.909,10.364-.8,1.329-1.594,2.126-1.86,2.657-.531.531-.8,1.063-.8.8a2.909,2.909,0,0,0,.531-1.063c.531-.8,1.063-1.594,1.86-2.923,1.594-2.392,3.72-6.112,6.643-10.364,5.58-8.769,13.287-20.993,21.259-34.545,3.986-6.909,8.238-13.287,11.692-19.133,3.72-5.846,6.909-11.161,9.3-15.678s4.252-8.238,5.58-10.9c.531-1.329,1.063-2.392,1.329-2.923C80.361,61.366,80.361,61.1,80.627,61.1Z" transform="translate(-21.9 -61.1)"/></g><g transform="translate(41.986 87.384)"><path class="q" d="M25.366,76.492a9.434,9.434,0,0,1,2.657-.266,24.38,24.38,0,0,1,7.175.531,10.111,10.111,0,0,1,4.517,2.126,10.382,10.382,0,0,1,3.72,4.517,8.8,8.8,0,0,1,0,6.378,25.064,25.064,0,0,1-2.657,6.112,65.443,65.443,0,0,1-7.441,10.9c-2.657,3.189-5.049,5.846-7.972,7.175a11.118,11.118,0,0,1-7.175,1.594,3.1,3.1,0,0,1-1.86-.531l-.531-.266a17.188,17.188,0,0,0,2.657.531,12.067,12.067,0,0,0,6.643-1.86,31.7,31.7,0,0,0,7.706-7.175,82.33,82.33,0,0,0,7.175-10.629,30.451,30.451,0,0,0,2.657-6.112c.531-2.126.8-3.986,0-5.846a7.783,7.783,0,0,0-3.455-4.252,15.912,15.912,0,0,0-4.252-2.126,25.5,25.5,0,0,0-7.175-.8Z" transform="translate(-15.8 -76.184)"/></g><g transform="translate(38.531 94.335)"><path class="q" d="M41.6,91.821a14.281,14.281,0,0,1-4.783,1.063A21.493,21.493,0,0,1,25.4,90.758a21.273,21.273,0,0,1-8.769-7.706A16.95,16.95,0,0,1,14.5,78.8c.266,0,.8,1.594,2.657,3.986a21.337,21.337,0,0,0,8.5,7.175,26.161,26.161,0,0,0,10.9,2.392C39.745,92.087,41.6,91.555,41.6,91.821Z" transform="translate(-14.5 -78.8)"/></g><g transform="translate(74.14 55.787)"><path class="q" d="M42.25,71.751a6,6,0,0,1-2.392,0,17.213,17.213,0,0,1-5.58-1.86,18.542,18.542,0,0,1-4.783-3.455A5.6,5.6,0,0,1,27.9,64.311c.266-.266,2.657,2.657,6.643,4.783C38.529,70.954,42.515,71.22,42.25,71.751Z" transform="translate(-27.9 -64.294)"/></g><g transform="translate(83.706 62.979)"><path class="q" d="M35.22,67.531a1.685,1.685,0,0,1,.266,1.594,5.559,5.559,0,0,1-1.063,1.594,2.385,2.385,0,0,1-2.392.531H31.5l.266-.531A9.375,9.375,0,0,1,34.157,67.8a13.809,13.809,0,0,1,1.329-.8c.266.266-1.594,1.594-2.923,4.252l-.266-.8h0a3.37,3.37,0,0,0,1.594-.266c.531-.266.8-.8,1.063-1.063A7.435,7.435,0,0,0,35.22,67.531Z" transform="translate(-31.5 -67)"/></g><g transform="translate(75.203 45.952)"><path class="q" d="M69.754,60.613a12.153,12.153,0,0,1-1.063,1.594,21.124,21.124,0,0,1-3.455,3.72,40.5,40.5,0,0,1-6.112,4.252c-1.329.531-2.657,1.063-4.252,1.594a25.277,25.277,0,0,1-4.783,1.063,29.112,29.112,0,0,1-16.21-2.923,41.9,41.9,0,0,1-4.252-2.657L28.3,65.927c0-.266,2.126,1.594,5.846,3.455a28.262,28.262,0,0,0,15.678,2.657c1.594-.266,3.189-.531,4.517-.8l3.986-1.594a27.016,27.016,0,0,0,6.112-3.986A53.672,53.672,0,0,0,69.754,60.613Z" transform="translate(-28.3 -60.592)"/></g><g transform="translate(50.489 55.273)"><path class="q" d="M72.944,64.1s0,.266-.531,1.063L71.084,67.82c-1.063,2.126-2.923,5.315-5.049,9.3-4.517,7.972-10.629,18.6-18.07,30.294S33.35,129.2,28.035,136.38c-2.657,3.72-4.783,6.643-6.378,8.5a25.74,25.74,0,0,1-1.86,2.392c-.531.531-.531.8-.8.8a3.288,3.288,0,0,0,.531-.8,9.274,9.274,0,0,0,1.594-2.392c1.594-2.126,3.72-5.049,6.112-8.769,5.315-7.441,12.224-17.538,19.664-29.231C54.343,95.457,60.72,84.561,65.238,76.855c2.392-3.986,3.986-6.909,5.315-9.3a9.275,9.275,0,0,1,1.594-2.392A7.862,7.862,0,0,1,72.944,64.1Z" transform="translate(-19 -64.1)"/></g></g><g transform="translate(644.839 47.993)"><path class="r" d="M178.7,42.83l1.594-3.72a39.1,39.1,0,0,0,2.923-6.378,13.462,13.462,0,0,0,.531-3.455,11.014,11.014,0,0,0-.531-4.252,1.251,1.251,0,0,1,1.86-1.594c1.063.8,2.392,3.986,1.86,8.238-.266,4.252,4.252-.531,5.846-2.126s7.175-6.643,8.238-6.643c1.329.266,1.329,1.594-.266,3.455-1.86,1.594-6.643,6.909-5.846,7.972.8.8,9.566-7.972,9.566-7.972s1.594-2.126,2.657-1.329c2.126,1.86-7.972,10.364-8.769,11.161-.8.531.266,1.594,1.063.8.8-.531,8.5-9.035,10.364-7.175,1.594,1.329-7.972,7.175-8.769,9.832-.531,2.657,6.909-5.049,8.238-3.72.531.531.8,1.063-3.986,4.783-5.049,3.986-20.461,12.224-20.461,12.224L178.7,42.83" transform="translate(48.237 37.671)"/><g class="ag" transform="matrix(1, -0.02, 0.02, 1, -670.06, -545.04)"><path class="r" d="M141.3,20.6s43.58,28.965,65.636,28.965a67.326,67.326,0,0,0,40.126-13.287l10.1,14.615s-24.713,21.79-64.308,19.93c-22.056-1.063-47.566-19.133-47.566-19.133Z" transform="matrix(1, 0.02, -0.02, 1, 646.11, 590.26)"/></g><g transform="translate(164.489 37.984)"><path class="s" d="M155.8,16.926l27.636,203.021h2.657L163.506,14.8,155.8,16.926" transform="translate(-154.206 -13.737)"/><path class="t" d="M155.2,17.589,166.361,14.4s-.266,1.594-.531,2.657,2.126,17.8,2.126,17.8l-9.035,2.657s-1.86-17.273-2.392-18.07S155.2,17.589,155.2,17.589Z" transform="translate(-155.2 -14.4)"/><path class="s" d="M166.4,92.231l1.329,8.5h.8L168.26,91.7Z" transform="translate(-136.638 113.712)"/></g><g class="af" transform="matrix(1, -0.02, 0.02, 1, -670.06, -545.04)"><path class="p" d="M153.19,59.188s.266,19.93,4.517,37.734c2.923,13.287,6.909,45.175,6.909,45.175L93.4,212.782l19.4,16.741s77.86-63.51,82.909-78.657c4.252-12.755-2.126-61.119-2.126-61.119s34.014,7.441,31.357,19.664c-2.657,11.958-20.461,58.993-20.461,58.993l25.245,9.035s31.888-80.252,23.916-89.021c-7.972-9.035-45.706-29.5-45.706-29.5S173.386,33.412,153.19,59.188Z" transform="matrix(1, 0.02, -0.02, 1, 565.95, 633.72)"/></g><path class="u" d="M148.915,22.1s10.9,9.832,20.2,14.881L155.824,60.9,143.6,53.988Z" transform="translate(-9.936 36.345)"/><path class="e" d="M153.9,47.03l1.594-3.72a39.092,39.092,0,0,0,2.923-6.378,13.463,13.463,0,0,0,.531-3.455,11.015,11.015,0,0,0-.531-4.252,1.251,1.251,0,0,1,1.86-1.594c1.063.8,2.392,3.986,1.86,8.238-.266,4.252,4.252-.531,5.846-2.126s7.175-6.643,8.238-6.643c1.329.266,1.329,1.594-.266,3.455-1.86,1.594-6.643,6.909-5.846,7.972.8.8,9.566-7.972,9.566-7.972s1.594-2.126,2.657-1.329c2.126,1.86-7.972,10.364-8.769,11.161-.8.531.266,1.594,1.063.8.8-.531,8.5-9.035,10.364-7.175,1.594,1.329-7.972,7.175-8.769,9.832-.531,2.657,6.909-5.049,8.238-3.72.531.531.8,1.063-3.986,4.783-5.049,3.986-20.461,12.224-20.461,12.224L153.9,47.03" transform="translate(7.135 44.632)"/><path class="f" d="M188.068,4.84c-5.846,3.72-13.287,2.126-19.93,1.329s-15.147-.531-18.867,5.049c-2.392,3.72-2.126,8.5-4.517,11.958-5.049,7.441-16.741,4.517-24.713,8.238-5.846,2.657-9.566,9.035-10.1,15.413s2.126,12.755,6.112,17.8c8.238,10.364,22.322,15.413,35.343,13.818s25.245-9.035,33.482-19.4c8.5-10.1,13.552-22.853,16.21-35.874,1.063-4.783,1.594-10.1-1.063-14.35s-9.3-5.846-12.489-2.126" transform="translate(-65.83 7.367)"/><path class="v" d="M164.245,28.257c-12.224,17.007-51.021,71.482-48.364,83.706,0,0,30.294-21.524,53.412-2.392,0,0,29.762-56.07,28.7-64.573-.531-3.455-2.126-10.1-1.594-15.678.531-6.643-5.846-11.427-14.35-10.9A22.66,22.66,0,0,0,164.245,28.257Z" transform="translate(-56.091 30.188)"/><path class="l" d="M110.773,124.115s9.566,15.944,5.58,13.818c-3.72-2.126-22.853-25.245-22.853-25.245l3.189-3.189Z" transform="translate(-92.969 181.197)"/><path class="l" d="M155.861,99.246s16.21,9.035,11.958,9.3c-4.252,0-32.419-10.629-32.419-10.629l1.063-4.517Z" transform="translate(-23.526 154.513)"/><g transform="translate(120.112)"><path class="w" d="M156.01,54.087c.266-2.126,3.72-9.035,3.72-9.035s7.972,2.126,11.161-5.315,9.3-24.979,9.3-24.979L168.765,2.8,151.492,9.975,139.8,45.849Z" transform="translate(-136.345 4.359)"/><g transform="translate(15.944 17.788)"><path class="f" d="M151.409,7.066a4.113,4.113,0,0,0-1.594.531,6.792,6.792,0,0,0-3.455,2.923,9.52,9.52,0,0,0-1.063,2.923,5.532,5.532,0,0,0,.8,3.455,9.193,9.193,0,0,0,2.657,2.923,5.908,5.908,0,0,0,4.252.8,6.983,6.983,0,0,0,3.986-1.86,6.848,6.848,0,0,0,2.126-3.455,8.779,8.779,0,0,0,0-3.72,4.519,4.519,0,0,0-1.594-2.657A6.567,6.567,0,0,0,153.535,6.8a9.956,9.956,0,0,1-2.126.266h1.86a5.888,5.888,0,0,1,4.252,2.126,5.249,5.249,0,0,1,1.594,2.923,5.92,5.92,0,0,1,0,3.72,7.575,7.575,0,0,1-2.126,3.72,7.781,7.781,0,0,1-4.252,1.86,6.758,6.758,0,0,1-4.517-1.063,6.762,6.762,0,0,1-2.923-3.189,10.433,10.433,0,0,1-.8-3.72,5.7,5.7,0,0,1,1.063-3.189,6.053,6.053,0,0,1,3.72-2.923,2.889,2.889,0,0,1,1.329-.266Z" transform="translate(-144.5 -6.8)"/></g><g transform="translate(32.616 23.9)"><path class="f" d="M160.144,9.631a3.857,3.857,0,0,0-1.594-.266,8.365,8.365,0,0,0-4.517,1.063,6.274,6.274,0,0,0-2.126,2.392,7.536,7.536,0,0,0-1.063,3.455A6.1,6.1,0,0,0,151.906,20a7.812,7.812,0,0,0,3.189,2.657,7.752,7.752,0,0,0,4.252.266,6.849,6.849,0,0,0,3.455-2.126A8.98,8.98,0,0,0,164.4,17.6a6.542,6.542,0,0,0-.266-3.189,7.079,7.079,0,0,0-2.657-3.72,5.9,5.9,0,0,0-1.329-1.063.823.823,0,0,1,.531.266,2.014,2.014,0,0,1,1.063.531,7.065,7.065,0,0,1,3.189,7.175,10.072,10.072,0,0,1-1.594,3.455,8.092,8.092,0,0,1-3.455,2.392,6.707,6.707,0,0,1-4.517-.266,6.285,6.285,0,0,1-3.455-2.923,5.7,5.7,0,0,1-1.063-3.986,8.65,8.65,0,0,1,1.063-3.72,6.858,6.858,0,0,1,2.392-2.392A8.365,8.365,0,0,1,158.815,9.1a11.511,11.511,0,0,1,1.329.266C159.878,9.366,160.144,9.631,160.144,9.631Z" transform="translate(-150.774 -9.1)"/></g><g transform="translate(30.028 28.152)"><path class="f" d="M152.723,11.763a5.693,5.693,0,0,1-1.594-.266c-.8-.266-1.329-.531-1.329-.8a5.693,5.693,0,0,1,1.594.266C152.192,11.231,152.723,11.5,152.723,11.763Z" transform="translate(-149.8 -10.7)"/></g><g transform="translate(10.364 20.711)"><path class="f" d="M149.309,10.557a16.786,16.786,0,0,1-3.455-1.063c-1.86-.8-3.455-1.329-3.455-1.594a16.787,16.787,0,0,1,3.455,1.063C147.715,9.76,149.309,10.292,149.309,10.557Z" transform="translate(-142.4 -7.9)"/></g><path class="f" d="M150.724,19.489s12.755,3.455,19.4-6.909l8.769,17.538a15.569,15.569,0,0,0,2.657-17.273C177.031,2.216,171.185,1.95,168.262.887,165.6-.176,150.724-2.3,140.626,11.782a39.337,39.337,0,0,0-2.126,3.455Z" transform="translate(-138.5 -0.106)"/><g transform="translate(35.343 28.417)"><path class="f" d="M153.925,12.794a1.012,1.012,0,1,1-.531-1.329C153.925,11.465,154.191,12.262,153.925,12.794Z" transform="translate(-151.533 -9.871)"/><path class="f" d="M155.52,12.926c-.266,0-.531-.8-1.594-1.329s-1.86-.266-2.126-.531a.928.928,0,0,1,.531-.266,3.371,3.371,0,0,1,1.594.266,5.8,5.8,0,0,1,1.329,1.063C155.786,12.66,155.786,12.926,155.52,12.926Z" transform="translate(-151.8 -10.8)"/></g><g transform="translate(23.916 24.166)"><path class="f" d="M149.725,11.194a1.012,1.012,0,0,1-1.86-.8,1.012,1.012,0,0,1,1.86.8Z" transform="translate(-147.068 -8.271)"/><path class="f" d="M151.22,11.326c-.266,0-.531-.8-1.594-1.329s-1.86-.266-2.126-.531a.928.928,0,0,1,.531-.266,3.37,3.37,0,0,1,1.594.266,5.8,5.8,0,0,1,1.329,1.063A2.057,2.057,0,0,1,151.22,11.326Z" transform="translate(-147.5 -9.2)"/></g><g transform="translate(28.168 27.62)"><path class="f" d="M149.1,19.269a4.59,4.59,0,0,1,1.86.531c.266,0,.531.266.531,0a.976.976,0,0,0,.266-.8V16.612c.266-3.455.266-6.112.531-6.112V19a1.6,1.6,0,0,1-.266,1.063.823.823,0,0,1-.531.266h-.531A5.893,5.893,0,0,1,149.1,19.269Z" transform="translate(-149.1 -10.5)"/></g><g class="x" transform="translate(16.966 32.275)"><path class="r" d="M150.772,15.038c-.266.8-1.86,1.063-3.455.531s-2.657-1.594-2.392-2.392,1.86-1.329,3.72-.531C150.24,12.912,151.3,14.24,150.772,15.038Z" transform="translate(-144.885 -12.252)"/></g><path class="i" d="M147.987,13.812c-.8-1.063,2.392,2.923,4.252,3.72,0,0-2.126,1.329-3.72-.266C146.658,15.406,147.987,13.812,147.987,13.812Z" transform="translate(-123.539 22.312)"/><path class="r" d="M152.869,23.175A20.651,20.651,0,0,1,144.1,16s.266,6.378,7.972,8.769Z" transform="translate(-129.219 26.236)"/></g><path class="v" d="M149.912,22.5c-.266,4.783,2.392,10.9,3.455,15.413.8,3.189,2.126,6.643,1.063,9.832-1.063,3.455-5.58,5.58-9.035,4.517l-1.594-10.9Z" transform="translate(-9.604 37.008)"/><path class="q" d="M118.231,69.689l-.531,9.035L136.833,75l-2.126-8.5Z" transform="translate(-52.861 109.931)"/><path class="q" d="M118.2,74.646s.531,13.021,2.923,14.615,15.147-3.455,15.147-3.455L134.41,68.8Z" transform="translate(-52.032 113.743)"/><path class="o" d="M118.2,72.989,134.676,69.8v2.126L118.2,75.38Z" transform="translate(-52.032 115.4)"/><g transform="translate(65.902 140.026)"><path class="q" d="M129,52.8s-.266.8-.8,2.126a22.744,22.744,0,0,1-3.455,4.517,14.209,14.209,0,0,1-4.517,3.189c-1.329.531-2.126.8-2.126.8,0-.266,3.189-1.594,6.112-4.517S128.729,52.8,129,52.8Z" transform="translate(-118.1 -52.8)"/></g><g transform="translate(5.58 150.123)"><path class="q" d="M156.785,56.6a.823.823,0,0,0,.266.531,11.509,11.509,0,0,1,.266,1.329c.266,1.063.8,2.923,1.329,5.049,1.063,4.252,2.657,10.629,4.252,18.6s3.455,17.273,5.049,27.9c.531,2.657.8,5.315,1.329,7.972a84.047,84.047,0,0,1,.8,8.5,13.5,13.5,0,0,1-.8,4.517,29.044,29.044,0,0,1-2.126,3.986c-1.594,2.657-3.986,4.783-6.112,6.909-17.538,17.273-34.014,32.42-45.972,42.783-6.112,5.315-10.9,9.566-14.35,12.489-1.594,1.329-3.189,2.657-3.986,3.189a3.669,3.669,0,0,0-1.063.8l-.266.266.266-.266a3.669,3.669,0,0,1,1.063-.8c.8-.8,2.126-1.86,3.986-3.455q5.182-4.385,14.35-12.755c11.958-10.629,28.434-25.776,45.706-43.049a45.534,45.534,0,0,0,5.846-6.643,17.069,17.069,0,0,0,2.923-7.972,30.781,30.781,0,0,0-.8-8.5c-.531-2.657-.8-5.315-1.329-7.972-1.594-10.629-3.455-19.93-4.783-27.9-1.594-7.972-2.923-14.35-3.986-18.6-.531-2.126-.8-3.986-1.063-5.049a11.508,11.508,0,0,0-.266-1.329Z" transform="translate(-95.4 -56.6)"/></g><g transform="translate(97.259 154.907)"><path class="q" d="M129.9,58.4a19.218,19.218,0,0,1,1.063,1.86,23.143,23.143,0,0,1,1.329,5.049c.8,3.986.8,7.441.531,7.441s-.8-3.189-1.329-7.175c-.266-1.86-.8-3.72-1.063-5.049A19.518,19.518,0,0,0,129.9,58.4Z" transform="translate(-129.9 -58.4)"/></g><g transform="translate(99.119 159.956)"><path class="q" d="M148.4,149.321a2.648,2.648,0,0,1,.266-1.063c.266-.8.8-1.86,1.329-3.189,1.063-2.657,2.657-6.643,4.517-11.692,3.72-9.832,8.238-23.916,12.489-39.594,1.063-3.986,2.126-7.706,1.86-11.427a12.086,12.086,0,0,0-1.594-5.049c-.531-.531-1.063-1.329-1.86-1.594a9.323,9.323,0,0,0-2.126-1.329,92.414,92.414,0,0,0-8.769-4.517c-2.923-1.329-5.58-2.392-7.972-3.455-4.783-2.126-9.035-3.455-11.692-4.517-1.329-.531-2.392-.8-3.189-1.063s-1.063-.266-1.063-.531a2.648,2.648,0,0,1,1.063.266c.8.266,1.86.531,3.189,1.063,2.923.8,6.909,2.392,11.692,4.252q3.587,1.594,7.972,3.189a95.343,95.343,0,0,1,9.035,4.517c.8.531,1.594.8,2.392,1.329a7.162,7.162,0,0,1,2.126,1.86,7.957,7.957,0,0,1,1.063,2.657,11.3,11.3,0,0,1,.531,2.923c.266,3.986-.8,7.972-1.86,11.692a392.1,392.1,0,0,1-12.755,39.594,126.052,126.052,0,0,1-4.783,11.692c-.531,1.329-1.063,2.392-1.329,3.189A3.289,3.289,0,0,1,148.4,149.321Z" transform="translate(-130.6 -60.3)"/></g><path class="q" d="M93.3,114.109l19.4,16.475,6.909-5.846-19.4-17.538Z" transform="translate(-93.3 177.385)"/><path class="q" d="M135.1,97.309l24.979,9.035L163,99.435,137.757,90.4Z" transform="translate(-24.023 149.541)"/><g class="y" transform="translate(59.79 125.572)"><path class="t" d="M147.157,47.465c0,.266-1.86.531-4.783,1.063-2.923.8-6.909,1.86-11.427,3.455a85.652,85.652,0,0,0-10.9,5.049,43.431,43.431,0,0,0-4.252,2.392,22.339,22.339,0,0,1,3.986-2.923,84.008,84.008,0,0,1,10.9-5.315A69.8,69.8,0,0,1,142.108,48C145.031,47.465,147.157,47.2,147.157,47.465Z" transform="translate(-115.8 -47.361)"/></g><g class="y" transform="translate(67.762 123.019)"><path class="t" d="M143.513,46.666c0,.266-5.58.266-12.489,1.594S118.8,51.449,118.8,51.183a23.18,23.18,0,0,1,3.455-1.594,77.964,77.964,0,0,1,8.769-2.392,62.455,62.455,0,0,1,9.035-.8C141.919,46.4,143.513,46.4,143.513,46.666Z" transform="translate(-118.8 -46.4)"/></g><path class="t" d="M176.956,23.332s-6.112-9.3-15.413-6.378c-9.3,3.189-54.741,34.545-45.706,49.426C124.872,81.528,134.7,77.542,134.7,77.542S164.732,26.787,176.956,23.332Z" transform="translate(-57.907 26.875)"/><path class="t" d="M123.86,42.312s12.224,2.657,21.79,1.86l.266-5.049S129.972,41.249,127.58,36.2L122,42.046" transform="translate(-45.734 59.714)"/><g transform="translate(93.906 50.739)"><path class="w" d="M153.9,47.03l1.594-3.72a39.092,39.092,0,0,0,2.923-6.378,13.463,13.463,0,0,0,.531-3.455,11.015,11.015,0,0,0-.531-4.252,1.251,1.251,0,0,1,1.86-1.594c1.063.8,2.392,3.986,1.86,8.238-.266,4.252,4.252-.531,5.846-2.126s7.175-6.643,8.238-6.643c1.329.266,1.329,1.594-.266,3.455-1.86,1.594-6.643,6.909-5.846,7.972.8.8,9.566-7.972,9.566-7.972s1.594-2.126,2.657-1.329c2.126,1.86-7.972,10.364-8.769,11.161-.8.531.266,1.594,1.063.8.8-.531,8.5-9.035,10.364-7.175,1.594,1.329-7.972,7.175-8.769,9.832-.531,2.657,6.909-5.049,8.238-3.72.531.531.8,1.063-3.986,4.783-5.049,3.986-20.461,12.224-20.461,12.224L153.9,47.03" transform="translate(-86.771 -6.107)"/><path class="o" d="M144.519,65.237c-.531-2.923-.266-36.937-.266-36.937s-8.5,44.643-3.455,45.175" transform="translate(-111.139 -4.118)"/><path class="o" d="M136.508,28.1s-22.587,81.049,8.769,76.8Z" transform="translate(-128.638 -4.45)"/><g transform="translate(4.895 2.005)"><g class="ae" transform="matrix(1, -0.02, 0.02, 1, -768.86, -597.78)"><path class="w" d="M148.071,20.075c-1.329.266-12.755,8.5-14.615,26.308-2.126,20.993-5.846,50.489.8,63.51,1.594,2.923,3.455,5.315,6.378,6.112,15.413,5.58,66.7-52.615,66.7-52.615l-10.1-14.881s-38,37.468-40.657,33.217c-1.594-2.657,2.923-24.448,2.923-41.454C159.232,28.579,156.84,18.747,148.071,20.075Z" transform="matrix(1, 0.02, -0.02, 1, 628.2, 588.88)"/></g></g><path class="v" d="M142.692,23.452A52.705,52.705,0,0,0,131,50.291l27.9,3.189s7.706-33.217-7.175-34.28A13.193,13.193,0,0,0,142.692,23.452Z" transform="translate(-124.724 -19.2)"/></g><g class="z" transform="translate(100.182 51.432)"><path class="t" d="M158.636,53.845c-.266,0,0-4.252,0-10.9a98.362,98.362,0,0,0-.531-11.958,20.207,20.207,0,0,0-1.594-6.643,5.214,5.214,0,0,0-2.392-2.392,7.356,7.356,0,0,0-3.455-.8,15.552,15.552,0,0,0-3.455.531,10.311,10.311,0,0,0-2.923,1.594,20.528,20.528,0,0,0-4.517,5.049,82.391,82.391,0,0,0-5.58,10.364A74.516,74.516,0,0,0,131,49.061a23.01,23.01,0,0,1,.266-2.923,50.383,50.383,0,0,1,2.126-7.706,57.781,57.781,0,0,1,5.315-10.9,23.26,23.26,0,0,1,4.783-5.58,8.751,8.751,0,0,1,3.455-1.86,6.967,6.967,0,0,1,3.986-.531,11.136,11.136,0,0,1,3.986,1.063,10.2,10.2,0,0,1,2.923,2.923,14.115,14.115,0,0,1,1.594,7.175,93.592,93.592,0,0,1,.266,11.958c-.266,3.455-.266,6.112-.531,7.972A30.057,30.057,0,0,1,158.636,53.845Z" transform="translate(-131 -19.461)"/></g><path class="p" d="M155.292,31.8l14.881,14.084-2.126,3.189L152.9,33.926Z" transform="translate(5.477 52.421)"/><path class="aa" d="M152.4,33.7l11.427,17.8,2.126-2.923L154.26,32.9Z" transform="translate(4.649 54.245)"/><path class="t" d="M150.847,57.615s7.706-26.308.266-36.671a7.047,7.047,0,0,0-9.566-1.594l-5.846,3.72s11.692-7.175,13.552,4.517S150.847,57.615,150.847,57.615Z" transform="translate(-23.029 29.796)"/><g transform="translate(61.385 45.159)"><path class="ab" d="M169.015,17.1s-.8.531-2.657,1.594c-1.594,1.063-4.252,2.392-7.175,4.252a90.276,90.276,0,0,0-9.832,7.175,123.305,123.305,0,0,0-11.161,9.832c-3.72,3.72-7.441,7.441-10.364,10.9-1.594,1.594-2.923,3.455-4.517,4.783a55.671,55.671,0,0,0-3.72,4.517,13.344,13.344,0,0,0-2.923,7.441c0,1.86.531,2.923.266,2.923a1.164,1.164,0,0,1-.266-.8,5.9,5.9,0,0,1-.266-2.392,10.376,10.376,0,0,1,.531-3.72,15.912,15.912,0,0,1,2.126-4.252,51.085,51.085,0,0,1,3.455-4.517c1.329-1.594,2.923-3.189,4.252-5.049,3.189-3.455,6.643-7.175,10.364-10.9a119.658,119.658,0,0,1,11.427-9.832c3.72-2.923,7.175-5.315,10.1-7.175a77.294,77.294,0,0,1,7.175-3.986A15.29,15.29,0,0,0,169.015,17.1Z" transform="translate(-116.4 -17.1)"/></g><g transform="translate(68.253 69.577)"><path class="ab" d="M124.606,33.493c-.266.266-1.594-1.329-3.189-3.189s-2.657-3.72-2.392-3.986,1.594,1.329,3.189,3.189C123.809,31.633,124.872,33.227,124.606,33.493Z" transform="translate(-118.985 -26.289)"/></g></g></g><g class="ad" transform="matrix(1, 0, 0, 1, -6, -6)"><path class="ac" d="M1260.179,287.871s21.5-131.744,87.914-195.479,140.258-74.8,213.389-157.6,165.343,41.985,184.694,157.6,48.789,262.584,29.245,214.1-94.808-137.018-131.494-140.936-15.9,101.553-96.179,140.936-73.333-229.46-128.087-140.936S1260.179,287.871,1260.179,287.871Z" transform="translate(105.31 230)"/></g></g></g></svg>